HIERARCHY
ROOT newVegas:Hips
{
	OFFSET 0.000000 96.479958 0.000000
	CHANNELS 6 Xposition Yposition Zposition Xrotation Yrotation Zrotation
	JOINT newVegas:Pelvis
	{
		OFFSET 0.000000 0.000000 0.000000
		CHANNELS 3 Xrotation Yrotation Zrotation
		JOINT newVegas:LeftUpLeg
		{
			OFFSET 18.735201 -5.666702 -4.541200
			CHANNELS 3 Xrotation Yrotation Zrotation
			JOINT newVegas:LeftLeg
			{
				OFFSET -0.021200 -31.938179 0.493100
				CHANNELS 3 Xrotation Yrotation Zrotation
				JOINT newVegas:LeftFoot
				{
					OFFSET 0.021200 -31.938179 -4.336299
					CHANNELS 3 Xrotation Yrotation Zrotation
					JOINT newVegas:LeftToeBase
					{
						OFFSET 0.943001 -26.722000 15.023500
						CHANNELS 3 Xrotation Yrotation Zrotation
						End Site
						{
							OFFSET 0.000000 30.670183 0.000000
						}
					}
				}
				JOINT newVegas:Left_PantLeg
				{
					OFFSET 0.663870 -9.044666 -1.108900
					CHANNELS 3 Xrotation Yrotation Zrotation
					End Site
					{
						OFFSET 1.415995 20.635357 0.000000
					}
				}
			}
		}
		JOINT newVegas:RightUpLeg
		{
			OFFSET -18.735201 -5.666702 -4.541200
			CHANNELS 3 Xrotation Yrotation Zrotation
			JOINT newVegas:RightLeg
			{
				OFFSET 0.018946 -31.938133 0.493100
				CHANNELS 3 Xrotation Yrotation Zrotation
				JOINT newVegas:RightFoot
				{
					OFFSET -0.018946 -31.938126 -4.336299
					CHANNELS 3 Xrotation Yrotation Zrotation
					JOINT newVegas:RightToeBase
					{
						OFFSET -0.943001 -26.722004 15.023500
						CHANNELS 3 Xrotation Yrotation Zrotation
						End Site
						{
							OFFSET 0.000000 30.670187 0.000000
						}
					}
				}
				JOINT newVegas:Right_PantLeg
				{
					OFFSET -0.661674 -9.044716 -1.108900
					CHANNELS 3 Xrotation Yrotation Zrotation
					End Site
					{
						OFFSET -1.415958 20.635269 0.000000
					}
				}
			}
		}
	}
	JOINT newVegas:Spine
	{
		OFFSET 0.000000 10.199997 -0.299500
		CHANNELS 3 Xrotation Yrotation Zrotation
		JOINT newVegas:Spine1
		{
			OFFSET 0.000000 11.900002 -1.516600
			CHANNELS 3 Xrotation Yrotation Zrotation
			JOINT newVegas:Spine2
			{
				OFFSET 0.000000 13.600006 -2.842500
				CHANNELS 3 Xrotation Yrotation Zrotation
				JOINT newVegas:Neck
				{
					OFFSET 0.000000 9.624100 -2.890100
					CHANNELS 3 Xrotation Yrotation Zrotation
					JOINT newVegas:Head
					{
						OFFSET 0.000000 14.068802 -1.351900
						CHANNELS 3 Xrotation Yrotation Zrotation
						JOINT newVegas:Hair_Back
						{
							OFFSET 0.000000 3.231903 -17.524799
							CHANNELS 3 Xrotation Yrotation Zrotation
							End Site
							{
								OFFSET 0.000000 19.849884 0.000000
							}
						}
						JOINT newVegas:Hair_Front
						{
							OFFSET 0.000000 31.260406 4.573800
							CHANNELS 3 Xrotation Yrotation Zrotation
							JOINT newVegas:Hair_Front1
							{
								OFFSET 0.000000 2.284103 11.993300
								CHANNELS 3 Xrotation Yrotation Zrotation
								JOINT newVegas:Hair_Front2
								{
									OFFSET 0.000000 2.284103 11.993300
									CHANNELS 3 Xrotation Yrotation Zrotation
									End Site
									{
										OFFSET 0.000000 12.208862 0.000000
									}
								}
							}
						}
						JOINT newVegas:Jowel
						{
							OFFSET 0.000000 -7.458206 6.864100
							CHANNELS 3 Xrotation Yrotation Zrotation
							End Site
							{
								OFFSET 0.000000 19.849884 0.000000
							}
						}
					}
				}
				JOINT newVegas:LeftShoulder
				{
					OFFSET 15.263000 10.923401 -0.547700
					CHANNELS 3 Xrotation Yrotation Zrotation
					JOINT newVegas:LeftArm
					{
						OFFSET 25.438599 -2.830597 -13.032500
						CHANNELS 3 Xrotation Yrotation Zrotation
						JOINT newVegas:LeftForeArm
						{
							OFFSET 29.960503 0.000000 0.000000
							CHANNELS 3 Xrotation Yrotation Zrotation
							JOINT newVegas:LeftHand
							{
								OFFSET 27.849251 0.000000 0.000000
								CHANNELS 3 Xrotation Yrotation Zrotation
								JOINT newVegas:LeftHandThumb1
								{
									OFFSET 4.487587 -3.305161 6.305391
									CHANNELS 3 Xrotation Yrotation Zrotation
									JOINT newVegas:LeftHandThumb2
									{
										OFFSET 5.480453 -3.164139 3.164143
										CHANNELS 3 Xrotation Yrotation Zrotation
										JOINT newVegas:LeftHandThumb3
										{
											OFFSET 5.159721 -2.978973 2.978967
											CHANNELS 3 Xrotation Yrotation Zrotation
											End Site
											{
												OFFSET 2.494507 5.926697 1.738678
											}
										}
									}
								}
								JOINT newVegas:LeftHandIndex1
								{
									OFFSET 18.578728 -0.527832 5.208049
									CHANNELS 3 Xrotation Yrotation Zrotation
									JOINT newVegas:LeftHandIndex2
									{
										OFFSET 3.192009 0.000000 0.000000
										CHANNELS 3 Xrotation Yrotation Zrotation
										JOINT newVegas:LeftHandIndex3
										{
											OFFSET 3.835129 0.000000 0.000000
											CHANNELS 3 Xrotation Yrotation Zrotation
											End Site
											{
												OFFSET -0.034599 3.816971 0.371180
											}
										}
									}
								}
								JOINT newVegas:LeftHandMiddle1
								{
									OFFSET 18.476105 0.000000 0.000000
									CHANNELS 3 Xrotation Yrotation Zrotation
									JOINT newVegas:LeftHandMiddle2
									{
										OFFSET 3.324875 0.000000 0.000000
										CHANNELS 3 Xrotation Yrotation Zrotation
										JOINT newVegas:LeftHandMiddle3
										{
											OFFSET 4.596550 0.000000 0.000000
											CHANNELS 3 Xrotation Yrotation Zrotation
											End Site
											{
												OFFSET 0.057701 4.578827 0.399218
											}
										}
									}
								}
								JOINT newVegas:LeftHandRing1
								{
									OFFSET 17.732719 0.121887 -4.201567
									CHANNELS 3 Xrotation Yrotation Zrotation
									JOINT newVegas:LeftHandRing2
									{
										OFFSET 2.733170 0.000000 0.000000
										CHANNELS 3 Xrotation Yrotation Zrotation
										JOINT newVegas:LeftHandRing3
										{
											OFFSET 3.178268 0.000000 0.000000
											CHANNELS 3 Xrotation Yrotation Zrotation
											End Site
											{
												OFFSET 0.119102 3.170624 0.185394
											}
										}
									}
								}
								JOINT newVegas:LeftHandPinky1
								{
									OFFSET 15.989624 -0.606689 -7.535461
									CHANNELS 3 Xrotation Yrotation Zrotation
									JOINT newVegas:LeftHandPinky2
									{
										OFFSET 2.538986 0.000000 0.000000
										CHANNELS 3 Xrotation Yrotation Zrotation
										JOINT newVegas:LeftHandPinky3
										{
											OFFSET 2.593102 0.000000 0.000000
											CHANNELS 3 Xrotation Yrotation Zrotation
											End Site
											{
												OFFSET -0.150902 2.584198 0.152708
											}
										}
									}
								}
							}
							JOINT newVegas:Left_Sleeve
							{
								OFFSET 0.267448 -0.649796 0.577675
								CHANNELS 3 Xrotation Yrotation Zrotation
								End Site
								{
									OFFSET 0.000000 15.991241 0.000000
								}
							}
							JOINT newVegas:Left_CapeC
							{
								OFFSET 15.715958 -8.608795 -6.935905
								CHANNELS 3 Xrotation Yrotation Zrotation
								JOINT newVegas:Left_CapeC1
								{
									OFFSET 0.000000 -8.688499 0.000000
									CHANNELS 3 Xrotation Yrotation Zrotation
									End Site
									{
										OFFSET 0.000000 8.688499 0.000000
									}
								}
							}
						}
						JOINT newVegas:Left_CapeB
						{
							OFFSET 26.118385 -8.608795 -7.079235
							CHANNELS 3 Xrotation Yrotation Zrotation
							JOINT newVegas:Left_CapeB1
							{
								OFFSET 0.000000 -8.688499 0.000000
								CHANNELS 3 Xrotation Yrotation Zrotation
								End Site
								{
									OFFSET 0.000000 8.688499 0.000000
								}
							}
						}
						JOINT newVegas:Left_CapeA
						{
							OFFSET 5.115639 -8.608795 -10.395809
							CHANNELS 3 Xrotation Yrotation Zrotation
							JOINT newVegas:Left_CapeA1
							{
								OFFSET 0.000000 -8.688499 0.000000
								CHANNELS 3 Xrotation Yrotation Zrotation
								End Site
								{
									OFFSET 0.000000 8.688499 0.000000
								}
							}
						}
					}
				}
				JOINT newVegas:RightShoulder
				{
					OFFSET -15.263000 10.923401 -0.547700
					CHANNELS 3 Xrotation Yrotation Zrotation
					JOINT newVegas:RightArm
					{
						OFFSET -25.438599 -2.830597 -13.032500
						CHANNELS 3 Xrotation Yrotation Zrotation
						JOINT newVegas:RightForeArm
						{
							OFFSET -29.960503 0.000000 0.000000
							CHANNELS 3 Xrotation Yrotation Zrotation
							JOINT newVegas:RightHand
							{
								OFFSET -27.849251 0.000000 0.000000
								CHANNELS 3 Xrotation Yrotation Zrotation
								JOINT newVegas:RightHandThumb1
								{
									OFFSET -4.487587 -3.305161 6.305391
									CHANNELS 3 Xrotation Yrotation Zrotation
									JOINT newVegas:RightHandThumb2
									{
										OFFSET -5.480453 -3.164139 3.164143
										CHANNELS 3 Xrotation Yrotation Zrotation
										JOINT newVegas:RightHandThumb3
										{
											OFFSET -5.159721 -2.978973 2.978967
											CHANNELS 3 Xrotation Yrotation Zrotation
											End Site
											{
												OFFSET -2.494507 5.926697 1.738678
											}
										}
									}
								}
								JOINT newVegas:RightHandIndex1
								{
									OFFSET -18.578728 -0.527832 5.208049
									CHANNELS 3 Xrotation Yrotation Zrotation
									JOINT newVegas:RightHandIndex2
									{
										OFFSET -3.192009 0.000000 0.000000
										CHANNELS 3 Xrotation Yrotation Zrotation
										JOINT newVegas:RightHandIndex3
										{
											OFFSET -3.835129 0.000000 0.000000
											CHANNELS 3 Xrotation Yrotation Zrotation
											End Site
											{
												OFFSET 0.034599 3.816971 0.371180
											}
										}
									}
								}
								JOINT newVegas:RightHandMiddle1
								{
									OFFSET -18.476105 0.000000 0.000000
									CHANNELS 3 Xrotation Yrotation Zrotation
									JOINT newVegas:RightHandMiddle2
									{
										OFFSET -3.324875 0.000000 0.000000
										CHANNELS 3 Xrotation Yrotation Zrotation
										JOINT newVegas:RightHandMiddle3
										{
											OFFSET -4.596550 0.000000 0.000000
											CHANNELS 3 Xrotation Yrotation Zrotation
											End Site
											{
												OFFSET -0.057701 4.578827 0.399218
											}
										}
									}
								}
								JOINT newVegas:RightHandRing1
								{
									OFFSET -17.732719 0.121887 -4.201567
									CHANNELS 3 Xrotation Yrotation Zrotation
									JOINT newVegas:RightHandRing2
									{
										OFFSET -2.733170 0.000000 0.000000
										CHANNELS 3 Xrotation Yrotation Zrotation
										JOINT newVegas:RightHandRing3
										{
											OFFSET -3.178268 0.000000 0.000000
											CHANNELS 3 Xrotation Yrotation Zrotation
											End Site
											{
												OFFSET -0.119102 3.170624 0.185394
											}
										}
									}
								}
								JOINT newVegas:RightHandPinky1
								{
									OFFSET -15.989624 -0.606689 -7.535461
									CHANNELS 3 Xrotation Yrotation Zrotation
									JOINT newVegas:RightHandPinky2
									{
										OFFSET -2.538986 0.000000 0.000000
										CHANNELS 3 Xrotation Yrotation Zrotation
										JOINT newVegas:RightHandPinky3
										{
											OFFSET -2.593102 0.000000 0.000000
											CHANNELS 3 Xrotation Yrotation Zrotation
											End Site
											{
												OFFSET 0.150902 2.584198 0.152708
											}
										}
									}
								}
							}
							JOINT newVegas:Right_CapeC
							{
								OFFSET -15.715958 -8.608795 -6.935905
								CHANNELS 3 Xrotation Yrotation Zrotation
								JOINT newVegas:Right_CapeC1
								{
									OFFSET 0.000000 -8.688499 0.000000
									CHANNELS 3 Xrotation Yrotation Zrotation
									End Site
									{
										OFFSET 0.000000 8.688499 0.000000
									}
								}
							}
							JOINT newVegas:Right_Sleeve
							{
								OFFSET -0.267448 -0.649994 0.577675
								CHANNELS 3 Xrotation Yrotation Zrotation
								End Site
								{
									OFFSET 0.000000 15.991302 0.000000
								}
							}
						}
						JOINT newVegas:Right_CapeA
						{
							OFFSET -5.115540 -8.608795 -10.395824
							CHANNELS 3 Xrotation Yrotation Zrotation
							JOINT newVegas:Right_CapeA1
							{
								OFFSET 0.000000 -8.688499 0.000000
								CHANNELS 3 Xrotation Yrotation Zrotation
								End Site
								{
									OFFSET 0.000000 8.688499 0.000000
								}
							}
						}
						JOINT newVegas:Right_CapeB
						{
							OFFSET -26.118187 -8.608795 -7.079266
							CHANNELS 3 Xrotation Yrotation Zrotation
							JOINT newVegas:Right_CapeB1
							{
								OFFSET 0.000000 -8.688499 0.000000
								CHANNELS 3 Xrotation Yrotation Zrotation
								End Site
								{
									OFFSET 0.000000 8.688499 0.000000
								}
							}
						}
					}
				}
				JOINT newVegas:Left_Collar
				{
					OFFSET 18.625099 8.655502 8.828100
					CHANNELS 3 Xrotation Yrotation Zrotation
					JOINT newVegas:Left_Collar1
					{
						OFFSET 14.783401 10.540405 -1.259500
						CHANNELS 3 Xrotation Yrotation Zrotation
						End Site
						{
							OFFSET 0.000000 18.199875 0.000000
						}
					}
				}
				JOINT newVegas:Collar_Back
				{
					OFFSET 0.000000 15.630707 -20.132601
					CHANNELS 3 Xrotation Yrotation Zrotation
					End Site
					{
						OFFSET 0.000000 22.523010 0.000000
					}
				}
				JOINT newVegas:Left_Peck
				{
					OFFSET 17.239599 -5.132599 25.482599
					CHANNELS 3 Xrotation Yrotation Zrotation
					End Site
					{
						OFFSET 0.000000 22.523010 0.000000
					}
				}
				JOINT newVegas:Right_Peck
				{
					OFFSET -17.239599 -5.132202 25.482599
					CHANNELS 3 Xrotation Yrotation Zrotation
					End Site
					{
						OFFSET 0.000000 22.523010 0.000000
					}
				}
				JOINT newVegas:Right_Collar
				{
					OFFSET -18.625099 8.655792 8.828100
					CHANNELS 3 Xrotation Yrotation Zrotation
					JOINT newVegas:Right_Collar1
					{
						OFFSET -14.783401 10.539993 -1.259500
						CHANNELS 3 Xrotation Yrotation Zrotation
						End Site
						{
							OFFSET 0.000000 18.199631 0.000000
						}
					}
				}
			}
		}
		JOINT newVegas:Belly
		{
			OFFSET 0.000000 -6.540398 9.014299
			CHANNELS 3 Xrotation Yrotation Zrotation
			End Site
			{
				OFFSET 0.000000 11.566666 0.000000
			}
		}
	}
	JOINT newVegas:ElvisFacialAnim_Joint
	{
		OFFSET 1.000000 -95.330101 -8.825800
		CHANNELS 3 Xrotation Yrotation Zrotation
		End Site
		{
			OFFSET 0.000000 35.315800 0.000000
		}
	}
}
MOTION
Frames: 4
Frame Time: 0.016667
-3.916342 83.270355 2.332137 3.004777 -58.203238 6.441833 -0.000000 0.000000 -0.000000 -38.301846 6.311068 29.650555 47.035784 -9.822858 -10.645411 -10.049959 -1.879521 -11.956709 0.000000 0.000003 -0.000000 0.000000 -0.000001 -0.000000 -34.545738 -3.812530 -30.706020 55.038972 4.468124 -7.825149 -22.928402 0.222264 25.857686 -0.000000 0.000001 -0.000000 0.000001 -0.000000 0.000000 11.191378 0.081089 -2.661025 8.434584 0.027705 -5.592322 8.457050 0.027864 -5.591870 -3.775664 5.323472 1.581315 -3.775658 5.323443 1.581323 -0.000000 -0.000001 0.000000 -3.775597 5.323478 1.581309 -3.775749 5.323427 1.581335 -0.000000 -0.000001 0.000001 -0.000000 -0.000001 0.000000 -6.221667 -11.503861 -4.023831 -23.062171 9.568536 -36.639607 0.046108 -43.169108 -0.011155 22.743746 -5.685863 15.979289 -1.064234 -7.954910 8.490090 2.373398 19.986079 -2.038349 -0.000000 -0.000001 -0.000006 13.340883 -1.006655 10.682262 -0.167586 0.303372 -31.105621 -0.000001 0.000001 -0.000004 8.495449 -0.329568 -0.915305 0.231505 0.661181 -29.901854 -0.000002 -0.000001 0.000001 6.111755 3.150885 -16.210962 0.047064 0.322403 -30.125465 -0.000000 0.000001 -0.000000 -5.636016 7.709865 -13.878616 0.224378 0.276578 -46.588389 0.000000 -0.000003 -0.000000 0.000001 -0.000001 0.000003 0.000001 -0.000001 0.000003 0.000001 -0.000001 0.000003 0.000002 0.000003 -0.000003 0.000003 0.000003 -0.000005 0.000002 0.000003 -0.000003 0.000002 0.000003 -0.000002 -5.488232 10.658263 2.466534 -41.473803 -26.755596 30.079067 24.955476 111.862987 -23.308471 -8.702505 12.423043 -9.801969 0.265014 10.061111 -10.888490 1.383808 -17.412884 3.016282 0.000001 -0.000003 0.000003 19.443621 11.174422 -13.340199 -0.118648 -0.322720 18.035596 -0.000001 0.000001 -0.000001 4.320484 2.436944 -4.811723 0.349139 -0.461250 26.890320 -0.000000 -0.000001 0.000002 -7.005621 -10.695141 5.719831 0.111870 -0.089223 26.155870 0.000002 0.000001 0.000000 -19.433521 -20.238204 5.987852 0.223777 -0.085816 36.844554 -0.000001 0.000002 -0.000001 0.000002 0.000000 -0.000000 0.000002 0.000001 0.000000 0.000000 0.000001 -0.000001 -0.000000 0.000001 -0.000000 -0.000000 0.000002 -0.000000 -0.000000 0.000001 -0.000000 -0.000000 0.000002 0.000001 -0.000001 -0.000000 -0.000000 -0.000001 -0.000000 -0.000000 -0.000001 -0.000000 -0.000000 -0.000001 -0.000000 -0.000000 -0.000001 -0.000000 -0.000000 -0.000001 -0.000000 -0.000000 -0.000001 -0.000000 -0.000000 -0.000001 -0.000001 0.000001 -0.000000 0.000000 -0.000000 
-3.947047 83.251038 2.401355 2.467218 -58.197228 5.913006 -0.000000 0.000000 -0.000000 -38.114631 6.231082 29.688551 47.345550 -9.912352 -10.558550 -10.266795 -1.820040 -11.960710 0.000000 -0.000002 0.000000 -0.000001 0.000003 -0.000002 -34.452949 -4.236225 -31.202087 55.135438 5.145167 -7.399933 -23.030607 0.358083 25.368683 -0.000000 0.000002 -0.000000 -0.000002 -0.000001 -0.000002 11.181064 0.067258 -2.641213 8.413341 0.007708 -5.542170 8.435800 0.007778 -5.541682 -3.796482 5.302152 1.587072 -3.796462 5.302169 1.587067 0.000004 0.000000 -0.000001 -3.796544 5.302144 1.587080 -3.796332 5.302151 1.587063 0.000000 -0.000002 0.000000 0.000004 0.000000 -0.000000 -6.261263 -11.506436 -4.015208 -22.811126 9.698539 -36.516623 0.794426 -43.624107 0.229708 22.724097 -5.775152 15.786102 -1.337175 -8.592353 8.462110 2.372307 19.986675 -2.038316 0.000000 0.000001 -0.000003 13.509671 -1.097517 9.424769 -0.159032 0.305444 -31.104057 -0.000000 -0.000000 0.000002 8.477596 -0.230346 -1.799017 0.234810 0.664024 -29.734337 0.000002 0.000001 -0.000002 6.088941 3.437385 -16.790620 0.051261 0.330243 -29.912096 -0.000001 -0.000001 0.000004 -5.699346 8.273524 -13.976715 0.209848 0.283956 -46.588488 -0.000001 -0.000002 0.000000 -0.000000 0.000000 0.000003 -0.000000 0.000000 0.000003 -0.000000 -0.000000 0.000003 -0.000001 -0.000002 -0.000001 0.000000 -0.000001 -0.000002 -0.000001 -0.000002 -0.000001 -0.000001 -0.000001 -0.000000 -5.513964 10.443171 2.326545 -40.253474 -26.263783 30.874292 22.710867 111.299497 -21.321767 -8.758531 12.223511 -9.454597 -0.163838 10.339069 -11.464017 1.370529 -17.420152 3.013306 0.000002 -0.000006 -0.000001 19.534097 10.739019 -14.196799 -0.102111 -0.326663 17.430846 0.000000 -0.000000 -0.000003 4.417751 2.218613 -5.481764 0.352846 -0.461287 26.461891 -0.000001 0.000000 0.000000 -6.982939 -10.920045 5.218395 0.085189 -0.090083 25.880157 0.000001 0.000001 -0.000000 -19.427686 -20.205264 5.922293 0.228604 -0.095095 36.799543 -0.000005 -0.000000 0.000001 0.000002 0.000003 0.000002 0.000001 0.000003 0.000002 0.000000 0.000005 0.000001 0.000002 -0.000001 0.000000 0.000002 0.000000 0.000000 0.000002 -0.000001 0.000000 0.000002 -0.000000 0.000001 -0.000001 0.000000 0.000001 -0.000001 0.000000 0.000001 -0.000001 0.000000 0.000001 -0.000001 0.000000 0.000001 -0.000001 0.000000 0.000001 -0.000001 0.000000 0.000001 -0.000001 0.000000 0.000001 0.000000 0.000001 0.000000 -0.000000 0.000000 -0.000000 
-4.076287 83.143524 2.593041 1.747115 -58.136979 5.213316 0.000000 0.000001 -0.000000 -37.913110 6.047381 29.798684 48.066643 -10.146391 -10.546758 -10.811825 -1.737164 -11.890114 0.000000 0.000000 -0.000000 -0.000001 -0.000001 -0.000000 -34.114176 -4.626955 -31.735733 55.368652 5.746843 -7.088634 -23.362396 0.376144 25.135943 0.000000 0.000001 -0.000000 0.000001 -0.000000 -0.000002 11.142161 0.031995 -2.583995 8.334201 -0.045756 -5.404247 8.356675 -0.045670 -5.403788 -3.838172 5.243539 1.604121 -3.838169 5.243545 1.604119 0.000001 -0.000001 0.000000 -3.838164 5.243533 1.604121 -3.838177 5.243571 1.604115 -0.000000 0.000002 -0.000000 0.000001 -0.000001 0.000000 -6.328842 -11.488492 -3.983637 -22.131666 10.073043 -36.144029 2.769436 -44.886873 0.926461 22.664429 -6.014889 15.253902 -1.443746 -9.455555 7.932147 2.372310 19.986667 -2.038384 0.000001 -0.000001 -0.000006 13.845184 -1.532788 7.580818 -0.159337 0.304551 -30.882885 -0.000000 -0.000002 0.000003 8.524458 -0.344004 -3.219835 0.234608 0.663856 -29.653000 -0.000002 -0.000000 -0.000000 6.136560 3.595729 -17.915509 0.051092 0.329956 -29.853613 0.000001 -0.000004 0.000002 -5.678620 8.863573 -14.718653 0.209865 0.283882 -46.588526 0.000000 0.000007 -0.000000 0.000001 -0.000001 -0.000000 0.000001 -0.000001 -0.000000 0.000001 -0.000001 0.000000 0.000001 -0.000004 0.000003 0.000002 -0.000004 0.000003 0.000001 -0.000004 0.000003 0.000001 -0.000003 0.000004 -5.548074 9.866002 1.937135 -37.030537 -24.874089 32.856929 15.981721 109.909177 -15.220853 -8.898754 11.688154 -8.523748 -1.286794 11.106081 -12.958742 1.370511 -17.420129 3.013326 0.000002 0.000000 -0.000004 19.732828 9.623666 -16.324683 -0.104588 -0.322127 15.920297 0.000000 -0.000003 0.000001 4.635085 1.638532 -7.128993 0.347177 -0.458698 25.403412 0.000001 0.000001 0.000001 -6.943918 -11.513880 4.011809 0.085693 -0.087031 25.221618 -0.000001 0.000001 0.000000 -19.419942 -20.160456 5.828232 0.228557 -0.095022 36.736524 -0.000000 0.000003 -0.000001 -0.000001 0.000003 0.000002 -0.000001 0.000001 -0.000001 -0.000001 0.000003 0.000004 -0.000001 -0.000001 0.000003 -0.000001 0.000000 0.000005 -0.000001 -0.000001 0.000003 -0.000001 0.000000 0.000006 0.000001 -0.000003 0.000003 0.000001 -0.000003 0.000003 0.000001 -0.000003 0.000003 0.000001 -0.000003 0.000003 0.000001 -0.000003 0.000003 0.000001 -0.000003 0.000003 0.000001 -0.000003 0.000003 -0.000001 -0.000001 0.000000 0.000000 0.000001 -0.000000 
-4.286093 82.997719 2.875538 0.901019 -58.019998 4.388054 -0.000000 -0.000002 -0.000000 -37.679654 5.879531 30.029357 48.952977 -10.579241 -10.656719 -11.529822 -1.654590 -11.692379 -0.000000 -0.000001 0.000000 0.000000 0.000001 0.000001 -33.524440 -5.005433 -32.206651 55.617752 6.182562 -6.906743 -23.827422 0.311498 25.091605 0.000000 0.000000 0.000000 -0.000001 0.000001 0.000001 11.077116 -0.019375 -2.497339 8.202125 -0.124057 -5.198295 8.224612 -0.123936 -5.197834 -3.884290 5.155136 1.629748 -3.884304 5.155128 1.629750 -0.000000 -0.000001 0.000001 -3.884295 5.155136 1.629751 -3.884216 5.155143 1.629737 0.000000 0.000001 -0.000000 -0.000000 -0.000001 0.000001 -6.417279 -11.419012 -3.918487 -21.132132 10.674318 -35.524476 5.610357 -46.795460 2.096788 22.562483 -6.361049 14.453075 -1.492395 -10.414523 7.157436 2.372310 19.986694 -2.038306 0.000001 0.000003 -0.000003 14.236168 -2.165256 5.410901 -0.159331 0.304526 -30.877137 0.000002 0.000000 0.000001 8.587914 -0.569224 -4.948586 0.234554 0.663840 -29.620208 0.000001 0.000000 -0.000005 6.219791 3.684102 -19.350756 0.051112 0.329952 -29.860218 0.000002 -0.000001 0.000001 -5.600358 9.470262 -15.793793 0.209859 0.283928 -46.588556 0.000000 -0.000002 -0.000000 0.000002 -0.000004 0.000003 0.000002 -0.000004 0.000003 0.000002 -0.000004 0.000003 0.000003 -0.000001 0.000001 0.000003 -0.000002 -0.000003 0.000003 -0.000001 0.000001 0.000002 -0.000001 0.000001 -5.599939 9.021861 1.345363 -32.495110 -22.695877 35.348148 4.343932 108.342175 -4.332182 -9.075138 10.910043 -7.177484 -2.857448 12.259148 -15.019029 1.370531 -17.420169 3.013339 -0.000001 0.000002 -0.000002 19.872230 8.134579 -19.053714 -0.107667 -0.316146 13.960282 0.000001 -0.000001 0.000000 4.859959 0.812336 -9.209668 0.340102 -0.454420 24.055617 0.000000 -0.000001 -0.000001 -6.928761 -12.352446 2.546296 0.086266 -0.083345 24.433233 0.000003 -0.000001 -0.000000 -19.409226 -20.187457 5.864947 0.228631 -0.095078 36.763722 -0.000005 -0.000000 -0.000002 -0.000001 0.000002 0.000001 -0.000001 0.000001 0.000001 -0.000001 0.000001 0.000000 -0.000001 0.000000 -0.000002 -0.000001 0.000001 -0.000002 -0.000001 0.000000 -0.000002 -0.000001 0.000001 -0.000001 0.000002 0.000002 -0.000000 0.000002 0.000002 -0.000000 0.000002 0.000002 -0.000000 0.000002 0.000002 -0.000000 0.000002 0.000002 -0.000000 0.000002 0.000002 -0.000000 0.000002 0.000002 -0.000000 -0.000000 -0.000003 0.000001 -0.000000 -0.000002 -0.000000 
